<?xml version="1.0" encoding="utf-8"?>
<!-- Generator: Adobe Illustrator 22.1.0, SVG Export Plug-In . SVG Version: 6.00 Build 0)  -->
<svg version="1.1" id="icon" xmlns="http://www.w3.org/2000/svg" xmlns:xlink="http://www.w3.org/1999/xlink" x="0px" y="0px"
	 viewBox="0 0 50 50" style="enable-background:new 0 0 50 50;" xml:space="preserve">
<g>
	<g>
		<path d="M44.7,16.8c-0.1-2.1-0.4-3.5-0.9-4.8c-0.5-1.3-1.2-2.4-2.3-3.5c-1.1-1.1-2.2-1.8-3.5-2.3c-1.3-0.5-2.7-0.8-4.8-0.9
			c-2.1-0.1-2.8-0.1-8.2-0.1s-6.1,0-8.2,0.1c-2.1,0.1-3.5,0.4-4.8,0.9c-1.3,0.5-2.4,1.2-3.5,2.3S6.7,10.7,6.2,12
			c-0.5,1.3-0.8,2.7-0.9,4.8c-0.1,2.1-0.1,2.8-0.1,8.2s0,6.1,0.1,8.2c0.1,2.1,0.4,3.5,0.9,4.8c0.5,1.3,1.2,2.4,2.3,3.5
			c1.1,1.1,2.2,1.8,3.5,2.3c1.3,0.5,2.7,0.8,4.8,0.9c2.1,0.1,2.8,0.1,8.2,0.1s6.1,0,8.2-0.1c2.1-0.1,3.5-0.4,4.8-0.9
			c1.3-0.5,2.4-1.2,3.5-2.3c1.1-1.1,1.8-2.2,2.3-3.5c0.5-1.3,0.8-2.7,0.9-4.8c0.1-2.1,0.1-2.8,0.1-8.2S44.8,18.9,44.7,16.8z
			 M41.1,33c-0.1,1.9-0.4,3-0.7,3.7c-0.4,0.9-0.8,1.6-1.5,2.3c-0.7,0.7-1.4,1.1-2.3,1.5C36,40.7,35,41.1,33,41.1
			c-2.1,0.1-2.7,0.1-8,0.1c-5.3,0-5.9,0-8-0.1c-1.9-0.1-3-0.4-3.7-0.7c-0.9-0.4-1.6-0.8-2.3-1.5s-1.1-1.4-1.5-2.3
			C9.3,36,8.9,35,8.8,33c-0.1-2.1-0.1-2.7-0.1-8s0-5.9,0.1-8c0.1-1.9,0.4-3,0.7-3.7c0.4-0.9,0.8-1.6,1.5-2.3s1.4-1.1,2.3-1.5
			C14,9.3,15.1,8.9,17,8.9c2.1-0.1,2.7-0.1,8-0.1s5.9,0,8,0.1c1.9,0.1,3,0.4,3.7,0.7c0.9,0.4,1.6,0.8,2.3,1.5
			c0.7,0.7,1.1,1.4,1.5,2.3c0.3,0.7,0.6,1.8,0.7,3.7c0.1,2.1,0.1,2.7,0.1,8C41.3,30.3,41.2,30.9,41.1,33z M25,14.8
			c-5.6,0-10.2,4.6-10.2,10.2S19.4,35.2,25,35.2c5.6,0,10.2-4.6,10.2-10.2S30.6,14.8,25,14.8z M25,31.6c-3.7,0-6.6-3-6.6-6.6
			c0-3.7,3-6.6,6.6-6.6s6.6,3,6.6,6.6C31.6,28.7,28.7,31.6,25,31.6z M35.6,12.1c-1.3,0-2.4,1.1-2.4,2.4c0,1.3,1.1,2.4,2.4,2.4
			c1.3,0,2.4-1.1,2.4-2.4C37.9,13.1,36.9,12.1,35.6,12.1z"/>
	</g>
</g>
</svg>
