<?xml version="1.0" encoding="utf-8"?>
<!-- Generator: Adobe Illustrator 16.0.0, SVG Export Plug-In . SVG Version: 6.00 Build 0)  -->
<!DOCTYPE svg PUBLIC "-//W3C//DTD SVG 1.1//EN" "http://www.w3.org/Graphics/SVG/1.1/DTD/svg11.dtd">
<svg version="1.1" id="design" xmlns="http://www.w3.org/2000/svg" xmlns:xlink="http://www.w3.org/1999/xlink" x="0px" y="0px"
	 width="315.417px" height="42px" viewBox="0 0 315.417 42" enable-background="new 0 0 315.417 42" xml:space="preserve">
<g enable-background="new    ">
	<path fill="#FFFFFF" d="M75.818,39.609h-3.562h-3.563V1.056h4.962h4.988l10.257,29.291h-0.015L99.077,1.056h4.963h4.987v38.554
		h-3.562h-3.562V10.345h0.009L91.723,39.609h-2.85h-2.85L75.801,10.421h0.017V39.609z"/>
	<path fill="#FFFFFF" d="M128.469,39.609V1.056h20.739v3.309v3.334h-13.614v9.491h12.979v3.309v3.334h-12.979v9.136h13.614v3.308
		v3.334H128.469z"/>
	<path fill="#FFFFFF" d="M176.131,39.609h-3.562h-3.562V1.056h4.097h4.097l16.032,28.171V1.056h3.563h3.562v38.554h-3.919h-3.944
		L176.131,11.21V39.609z"/>
</g>
<g enable-background="new    ">
	<path fill="#FFFFFF" d="M249.129,25.181c0,4.869-1.191,8.618-3.575,11.248s-5.789,3.944-10.217,3.944
		c-4.411,0-7.817-1.314-10.218-3.944s-3.601-6.379-3.601-11.248V1.056h3.562h3.562v24.456c0,2.748,0.556,4.806,1.667,6.171
		s2.787,2.048,5.026,2.048c2.222,0,3.889-0.683,5-2.048s1.667-3.423,1.667-6.171V1.056h3.562h3.562V25.181z"/>
</g>
<g>
	<g>
		<line fill="#FFFFFF" x1="47.18" y1="24.423" x2="40.331" y2="17.577"/>
		
			<rect x="38.914" y="19.909" transform="matrix(0.7072 0.707 -0.707 0.7072 27.6566 -24.7862)" fill="#FFFFFF" width="9.684" height="2.182"/>
	</g>
	<g>
		<line fill="#FFFFFF" x1="39.917" y1="24.423" x2="33.072" y2="17.577"/>
		
			<rect x="31.654" y="19.909" transform="matrix(0.7071 0.7071 -0.7071 0.7071 25.5395 -19.6553)" fill="#FFFFFF" width="9.682" height="2.182"/>
	</g>
	<g>
		<line fill="#FFFFFF" x1="32.655" y1="24.423" x2="25.807" y2="17.577"/>
		
			<rect x="24.389" y="19.909" transform="matrix(0.7072 0.707 -0.707 0.7072 23.4043 -14.5177)" fill="#FFFFFF" width="9.684" height="2.182"/>
	</g>
	<g>
		<line fill="#FFFFFF" x1="25.393" y1="24.423" x2="18.545" y2="17.577"/>
		
			<rect x="17.128" y="19.909" transform="matrix(0.7072 0.707 -0.707 0.7072 21.2805 -9.3838)" fill="#FFFFFF" width="9.683" height="2.182"/>
	</g>
	<g>
		<line fill="#FFFFFF" x1="18.132" y1="24.423" x2="11.282" y2="17.577"/>
		
			<rect x="9.865" y="19.908" transform="matrix(0.7073 0.7069 -0.7069 0.7073 19.1493 -4.2501)" fill="#FFFFFF" width="9.684" height="2.183"/>
	</g>
	<g>
		<line fill="#FFFFFF" x1="10.869" y1="24.423" x2="4.021" y2="17.577"/>
		
			<rect x="2.603" y="19.909" transform="matrix(0.7072 0.707 -0.707 0.7072 17.0275 0.8854)" fill="#FFFFFF" width="9.683" height="2.182"/>
	</g>
</g>
<g>
	<g>
		<line fill="#FFFFFF" x1="312.396" y1="24.423" x2="305.547" y2="17.577"/>
		
			<rect x="304.13" y="19.908" transform="matrix(0.7073 0.7069 -0.7069 0.7073 105.2781 -212.2673)" fill="#FFFFFF" width="9.684" height="2.183"/>
	</g>
	<g>
		<line fill="#FFFFFF" x1="305.133" y1="24.423" x2="298.287" y2="17.577"/>
		
			<rect x="296.869" y="19.909" transform="matrix(0.7071 0.7071 -0.7071 0.7071 103.226 -207.1976)" fill="#FFFFFF" width="9.682" height="2.182"/>
	</g>
	<g>
		<line fill="#FFFFFF" x1="297.871" y1="24.423" x2="291.021" y2="17.577"/>
		
			<rect x="289.604" y="19.908" transform="matrix(0.7073 0.7069 -0.7069 0.7073 101.0266 -201.9992)" fill="#FFFFFF" width="9.684" height="2.183"/>
	</g>
	<g>
		<line fill="#FFFFFF" x1="290.607" y1="24.423" x2="283.76" y2="17.577"/>
		
			<rect x="282.343" y="19.908" transform="matrix(0.7072 0.707 -0.707 0.7072 98.9402 -196.8993)" fill="#FFFFFF" width="9.683" height="2.183"/>
	</g>
	<g>
		<line fill="#FFFFFF" x1="283.348" y1="24.423" x2="276.498" y2="17.577"/>
		
			<rect x="275.081" y="19.908" transform="matrix(0.7073 0.7069 -0.7069 0.7073 96.7757 -191.7325)" fill="#FFFFFF" width="9.684" height="2.183"/>
	</g>
	<g>
		<line fill="#FFFFFF" x1="276.084" y1="24.423" x2="269.236" y2="17.577"/>
		
			<rect x="267.819" y="19.909" transform="matrix(0.7072 0.707 -0.707 0.7072 94.6872 -186.6301)" fill="#FFFFFF" width="9.683" height="2.182"/>
	</g>
</g>
</svg>
